<svg width="16" height="16" viewBox="0 0 16 16" fill="none" xmlns="http://www.w3.org/2000/svg">
<g id="Layer x0020 1">
<g id="1421344023328">
<path id="Vector" d="M14.8551 10.26C13.8494 14.2936 9.76401 16.7484 5.72988 15.7426C1.69744 14.737 -0.757361 10.6513 0.248688 6.61796C1.25385 2.58386 5.33929 0.128878 9.37217 1.13449C13.406 2.14009 15.8607 6.22623 14.8549 10.2601L14.855 10.26H14.8551Z" fill="#F7931A"/>
<path id="Vector_2" d="M10.8845 7.35989C11.0344 6.35788 10.2715 5.81927 9.22839 5.45996L9.56679 4.10267L8.74056 3.89679L8.41114 5.21835C8.19393 5.16418 7.97086 5.11313 7.74916 5.06253L8.08098 3.73224L7.25527 3.52637L6.91668 4.88322C6.73693 4.8423 6.56039 4.80185 6.38911 4.75923L6.39006 4.75496L5.25068 4.47044L5.03089 5.3529C5.03089 5.3529 5.64388 5.49342 5.63096 5.50207C5.96554 5.58557 6.02604 5.80705 6.016 5.9826L5.63052 7.52889C5.65356 7.53474 5.68344 7.5432 5.71642 7.55645C5.68885 7.54961 5.65952 7.54213 5.62908 7.53485L5.08878 9.70097C5.04789 9.80262 4.94411 9.95516 4.71019 9.89724C4.71847 9.90923 4.10967 9.74737 4.10967 9.74737L3.69946 10.6931L4.77466 10.9612C4.97469 11.0113 5.1707 11.0638 5.36373 11.1132L5.02183 12.486L5.84711 12.6919L6.18569 11.3336C6.41115 11.3948 6.62994 11.4513 6.84414 11.5045L6.50669 12.8564L7.33296 13.0623L7.67482 11.692C9.08371 11.9586 10.1431 11.8511 10.589 10.5768C10.9483 9.55077 10.5711 8.95898 9.8299 8.57306C10.3698 8.44856 10.7764 8.09348 10.8848 7.36L10.8846 7.35981L10.8845 7.35989ZM8.99679 10.007C8.74145 11.033 7.01398 10.4784 6.45392 10.3393L6.90762 8.52047C7.46766 8.66028 9.26365 8.93697 8.99682 10.007H8.99679ZM9.25231 7.34502C9.01938 8.27827 7.5816 7.80414 7.11519 7.68787L7.52654 6.03832C7.99295 6.15458 9.49495 6.37158 9.25238 7.34502H9.25231Z" fill="white"/>
</g>
</g>
</svg>
