<svg width="18" height="18" viewBox="0 0 18 18" fill="none" xmlns="http://www.w3.org/2000/svg">
<g id="Icons/fi:interface-link-broken-break-broken-hyperlink-link-remove-unlink/Black">
<path id="Vector" d="M4.99283 9.13645L3.05172 11.0776C2.53827 11.5931 2.25 12.2911 2.25 13.0187C2.25 13.7463 2.53827 14.4443 3.05172 14.9598C3.56726 15.4732 4.26523 15.7615 4.99283 15.7615C5.72044 15.7615 6.41841 15.4732 6.93395 14.9598L8.08617 13.8076M11.0757 11.5966H13.0064C13.3663 11.5966 13.7227 11.5257 14.0551 11.388C14.3876 11.2503 14.6897 11.0484 14.9442 10.7939C15.1987 10.5395 15.4005 10.2374 15.5382 9.90489C15.676 9.57241 15.7468 9.21606 15.7468 8.85618C15.7468 8.12938 15.4581 7.43235 14.9442 6.91842C14.4303 6.4045 13.7332 6.11578 13.0064 6.11578H10.266M8.99963 2.2543L8.48062 4.33037M2.25243 5.3684L4.32849 6.40643M4.84751 2.2543L5.88554 4.33037" stroke="#FF3737" stroke-width="1.5" stroke-linecap="round" stroke-linejoin="round"/>
</g>
</svg>
