<svg width="243" height="285" viewBox="0 0 243 285" fill="none" xmlns="http://www.w3.org/2000/svg">
<path d="M12 158.828V109.896C16.0565 88.8528 39.6856 43.4704 98.7078 31.3009C157.73 19.1314 183.641 50.5693 189.218 67.8095L190.993 83.5287L184.148 90.1205C179.889 80.3849 178.063 103.22 174.26 97.7268C147.893 58.176 43.1844 62.4856 32.7896 162.377L12 158.828Z" fill="url(#paint0_radial_439_10793)"/>
<path d="M221.671 133.474L221.5 77C163.103 105.649 46.1766 165.622 44.9597 175.561C43.7427 185.499 77.5807 206.576 94.6519 215.872L221.671 133.474Z" fill="url(#paint1_linear_439_10793)"/>
<path d="M35.5 112L11.5 110L12 159L33 162.5L35.5 112Z" fill="#D8D8D8"/>
<path d="M229.5 119C221.212 228.526 86.6929 276.068 19 163.5L19.6055 224.492C39.6852 309.273 223.922 308.843 229.5 194.5V119Z" fill="url(#paint2_radial_439_10793)"/>
<g clip-path="url(#clip0_439_10793)">
<path d="M23.3331 111.119C26.2594 80.4438 43.663 51.6541 72.5578 35.4073C119.432 9.05101 178.798 25.6843 205.154 72.5588L35.4063 168.003C61.7626 214.878 121.128 231.511 168.002 205.155C200.113 187.1 218.033 153.554 217.662 119.145" stroke="url(#paint3_linear_439_10793)" stroke-width="24"/>
</g>
<defs>
<radialGradient id="paint0_radial_439_10793" cx="0" cy="0" r="1" gradientUnits="userSpaceOnUse" gradientTransform="translate(127 144.5) rotate(-93.5214) scale(195.369 241.674)">
<stop offset="0.27232" stop-color="#FAFAFA"/>
<stop offset="0.545145" stop-color="#C5C5C5"/>
<stop offset="1" stop-color="#9E9E9E"/>
</radialGradient>
<linearGradient id="paint1_linear_439_10793" x1="84.7641" y1="121.812" x2="133.299" y2="215.872" gradientUnits="userSpaceOnUse">
<stop stop-color="#9B9B9B"/>
<stop offset="1" stop-color="#D9D9D9" stop-opacity="0"/>
</linearGradient>
<radialGradient id="paint2_radial_439_10793" cx="0" cy="0" r="1" gradientUnits="userSpaceOnUse" gradientTransform="translate(124.821 100.008) rotate(89.8594) scale(206.629 216.739)">
<stop stop-color="#787878"/>
<stop offset="0.366688" stop-color="#ACACAC" stop-opacity="0.936635"/>
<stop offset="0.541842" stop-color="#BBBBBB" stop-opacity="0.82707"/>
<stop offset="1" stop-color="#F1F2F4" stop-opacity="0"/>
</radialGradient>
<linearGradient id="paint3_linear_439_10793" x1="72.5578" y1="35.4073" x2="147" y2="244.5" gradientUnits="userSpaceOnUse">
<stop stop-color="white"/>
<stop offset="1" stop-color="#CBCBCB"/>
</linearGradient>
<clipPath id="clip0_439_10793">
<rect width="243" height="243" fill="white"/>
</clipPath>
</defs>
</svg>
