<svg width="243" height="287" viewBox="0 0 243 287" fill="none" xmlns="http://www.w3.org/2000/svg">
<path d="M12 158.828V109.896C16.0565 88.8528 39.6856 43.4704 98.7078 31.3009C157.73 19.1314 183.641 50.5693 189.218 67.8095L190.993 83.5287L184.148 90.1205C179.889 80.3849 178.063 103.22 174.26 97.7268C147.893 58.176 43.1844 62.4856 32.7896 162.377L12 158.828Z" fill="url(#paint0_radial_439_10792)"/>
<path d="M221.671 133.474L221.925 77.1904C163.528 105.839 46.1766 165.622 44.9597 175.561C43.7427 185.499 77.5807 206.576 94.6519 215.872L221.671 133.474Z" fill="url(#paint1_linear_439_10792)"/>
<path d="M35.5 112L11.5 110L12 159L33 162.5L35.5 112Z" fill="#313131"/>
<path d="M229.5 119C219 221 86.6929 276.068 19 163.5V223C39.0797 307.781 223.922 312.343 229.5 198V119Z" fill="url(#paint2_radial_439_10792)"/>
<g clip-path="url(#clip0_439_10792)">
<path d="M23.3331 111.119C26.2594 80.4438 43.663 51.6541 72.5578 35.4073C119.432 9.05101 178.798 25.6843 205.154 72.5588L35.4063 168.003C61.7626 214.878 121.128 231.511 168.002 205.155C200.113 187.1 218.033 153.554 217.662 119.145" stroke="url(#paint3_linear_439_10792)" stroke-width="24"/>
</g>
<defs>
<radialGradient id="paint0_radial_439_10792" cx="0" cy="0" r="1" gradientUnits="userSpaceOnUse" gradientTransform="translate(127 144.5) rotate(-93.5214) scale(195.369 241.674)">
<stop offset="0.332053" stop-color="#1E1E1E"/>
<stop offset="0.545145" stop-color="#454545"/>
<stop offset="1" stop-color="#9E9E9E"/>
</radialGradient>
<linearGradient id="paint1_linear_439_10792" x1="84.7641" y1="121.812" x2="128.001" y2="196.5" gradientUnits="userSpaceOnUse">
<stop stop-color="#555555"/>
<stop offset="1" stop-color="#1E1E1E"/>
</linearGradient>
<radialGradient id="paint2_radial_439_10792" cx="0" cy="0" r="1" gradientUnits="userSpaceOnUse" gradientTransform="translate(121.5 101.5) rotate(88.6746) scale(194.552 163.919)">
<stop stop-color="#2F2F2F"/>
<stop offset="0.490339" stop-color="#393939" stop-opacity="0.936635"/>
<stop offset="0.815554" stop-color="#242424" stop-opacity="0.82707"/>
<stop offset="1" stop-color="#1E1E1E"/>
</radialGradient>
<linearGradient id="paint3_linear_439_10792" x1="89.5" y1="22.5" x2="168.002" y2="205.155" gradientUnits="userSpaceOnUse">
<stop stop-color="#666666"/>
<stop offset="1" stop-color="#414141"/>
</linearGradient>
<clipPath id="clip0_439_10792">
<rect width="243" height="243" fill="white"/>
</clipPath>
</defs>
</svg>
