<svg width="38" height="38" viewBox="0 0 38 38" fill="none" xmlns="http://www.w3.org/2000/svg">
<g id="fi-sr-flame">
<path id="Vector" d="M24.9312 28.9019C24.9312 26.5269 23.2988 23.2811 20.3396 19.7613C20.1758 19.566 19.9707 19.4094 19.739 19.3029C19.5074 19.1963 19.255 19.1426 19.0001 19.1454C18.7433 19.1443 18.4893 19.199 18.2558 19.3059C18.0222 19.4129 17.8148 19.5693 17.6479 19.7645C14.4084 23.5598 12.8251 26.9164 13.099 29.4894C13.2068 30.3028 13.4857 31.0843 13.9175 31.7821C14.3492 32.4799 14.924 33.0784 15.6038 33.5379C16.5655 34.3265 17.7575 34.7811 19.0001 34.8331C20.5726 34.8314 22.0802 34.206 23.1922 33.0941C24.3041 31.9821 24.9296 30.4745 24.9312 28.9019Z" fill="#374957"/>
<path id="Vector_2" d="M26.3293 4.59221C25.0848 3.53454 23.7785 2.42621 22.4485 1.21654C21.9442 0.75869 21.3459 0.416596 20.6956 0.214207C20.0452 0.0118183 19.3584 -0.045975 18.6834 0.0448729C18.0291 0.131523 17.4019 0.360779 16.8459 0.716445C16.29 1.07211 15.8189 1.54551 15.466 2.10321C13.5793 5.25694 12.2449 8.70966 11.5204 12.3125C11.2369 11.9021 10.9849 11.4707 10.7667 11.0221C10.5426 10.5499 10.2051 10.1406 9.78432 9.83055C9.36354 9.52052 8.87257 9.31946 8.3552 9.2453C7.83783 9.17115 7.31015 9.2262 6.81922 9.40556C6.3283 9.58491 5.88941 9.88299 5.54169 10.2732C2.88693 12.9877 1.41531 16.6431 1.44878 20.4398C1.41206 24.3181 2.67337 28.0972 5.03204 31.176C7.39071 34.2548 10.7112 36.4564 14.4654 37.4305C15.9028 37.7922 17.3785 37.9793 18.8607 37.9879C16.9666 37.9173 15.1461 37.2364 13.6705 36.0467C12.6483 35.3273 11.7889 34.401 11.1478 33.3279C10.5068 32.2548 10.0986 31.0589 9.94969 29.8179C9.58553 26.3187 11.3636 22.2448 15.2349 17.7101C15.6993 17.1657 16.2766 16.7289 16.9268 16.4301C17.577 16.1312 18.2844 15.9775 19 15.9795H19.0159C19.7293 15.9801 20.4341 16.1363 21.0811 16.437C21.7281 16.7378 22.3017 17.1761 22.762 17.7212C25.1972 20.614 28.1026 24.9016 28.1026 28.9011C28.0991 31.206 27.2214 33.4237 25.6465 35.1067C24.0717 36.7896 21.9171 37.8125 19.6175 37.9689C24.1643 37.8224 28.4755 35.9117 31.6378 32.6415C34.8002 29.3713 36.5653 24.9984 36.5592 20.4493C36.5513 13.2768 31.8139 9.25512 26.3293 4.59221Z" fill="#374957"/>
</g>
</svg>
