<svg width="272" height="205" viewBox="0 0 272 205" fill="none" xmlns="http://www.w3.org/2000/svg">
<path fill-rule="evenodd" clip-rule="evenodd" d="M64.9932 137.825C72.6489 151.085 91.7883 151.085 99.444 137.825L146.007 57.1761H63.5525C55.8212 57.1761 49.5538 50.9087 49.5538 43.1774C49.5538 35.4462 55.8212 29.1787 63.5525 29.1787H162.142C168.865 16.0825 159.385 0.251233 144.421 0.251232L20.0158 0.251221C4.70432 0.251219 -4.86533 16.8264 2.7904 30.0865L64.9932 137.825Z" fill="#424242"/>
<path fill-rule="evenodd" clip-rule="evenodd" d="M206.502 67.1182C198.847 53.8581 179.707 53.8581 172.051 67.1182L125.519 147.715H209.134C216.866 147.715 223.133 153.982 223.133 161.714C223.133 169.445 216.866 175.712 209.134 175.712H109.381C102.605 188.819 112.09 204.692 127.074 204.692H251.48C266.791 204.692 276.361 188.117 268.705 174.857L206.502 67.1182Z" fill="#5BC0BE"/>
</svg>
