<svg width="418" height="113" viewBox="0 0 418 113" fill="none" xmlns="http://www.w3.org/2000/svg">
<path d="M7.00543 110.218C6.77094 109.769 7.02103 109.236 7.60065 108.91C125.917 45.4131 277.055 8.66285 413.606 22.6868C414.364 22.7705 414.884 23.2283 414.874 23.788C414.822 24.0132 414.69 24.2122 414.504 24.3488C414.317 24.4853 414.088 24.5504 413.858 24.532C275.765 26.2103 129.868 48.3289 8.33874 110.456C8.12513 110.584 7.87256 110.63 7.62754 110.586C7.38251 110.542 7.16154 110.411 7.00543 110.218Z" fill="#231F20"/>
<path d="M101.447 89.0946C169.645 59.0994 279.395 39.2238 354.017 44.0329C355.382 44.1188 355.094 45.6173 353.701 45.6537C278.673 47.5803 173.231 66.6199 102.3 90.5125C100.977 90.9574 100.192 89.6453 101.447 89.0946Z" fill="#231F20"/>
<path d="M368.149 43.2923C373.117 42.5252 378.18 42.6127 383.119 43.5512C385.461 44.0158 384.99 46.5444 382.481 46.9212C377.504 47.699 372.43 47.6131 367.482 46.6673C365.169 46.1978 365.65 43.6675 368.149 43.2923Z" fill="#3772FF"/>
</svg>
