<svg width="38" height="38" viewBox="0 0 38 38" fill="none" xmlns="http://www.w3.org/2000/svg">
<g id="fi-sr-cloud-share" clip-path="url(#clip0_700_4015)">
<path id="Vector" d="M20.5831 34.8332H8.99781C6.8868 34.7952 4.85227 34.0364 3.23194 32.6828C1.61161 31.3291 0.502945 29.4621 0.089977 27.3915C-0.178921 25.6098 0.117069 23.7887 0.93637 22.1839C1.75567 20.5791 3.05712 19.2712 4.65789 18.4441C3.28332 15.9445 2.83477 13.0402 3.39123 10.2424C3.9325 7.47526 5.38156 4.96781 7.50888 3.11725C9.63621 1.26669 12.3202 0.178819 15.1356 0.0259602C17.9511 -0.126899 20.737 0.663994 23.0522 2.27336C25.3674 3.88272 27.0794 6.21855 27.9171 8.91083C27.9968 9.1833 28.1427 9.43177 28.342 9.63402C28.5412 9.83628 28.7874 9.98601 29.0586 10.0698C30.8035 10.6042 32.4128 11.5082 33.777 12.7203C33.6028 12.7077 33.4318 12.6665 33.2497 12.6665C31.3964 12.669 29.6025 13.3204 28.1795 14.5077C26.7565 15.6951 25.7942 17.3432 25.4597 19.1661L24.1186 19.8374C23.0219 19.2853 21.8109 18.9984 20.5831 18.9998C18.4834 18.9998 16.4698 19.8339 14.9851 21.3186C13.5005 22.8032 12.6664 24.8169 12.6664 26.9165C12.6664 29.0161 13.5005 31.0298 14.9851 32.5144C16.4698 33.9991 18.4834 34.8332 20.5831 34.8332ZM33.2497 25.3332C34.1892 25.3332 35.1075 25.0546 35.8887 24.5326C36.6698 24.0107 37.2786 23.2689 37.6382 22.4009C37.9977 21.533 38.0917 20.5779 37.9085 19.6565C37.7252 18.7351 37.2728 17.8887 36.6085 17.2244C35.9442 16.5601 35.0978 16.1077 34.1764 15.9244C33.255 15.7412 32.2999 15.8352 31.432 16.1947C30.564 16.5542 29.8222 17.1631 29.3002 17.9442C28.7783 18.7253 28.4997 19.6437 28.4997 20.5832C28.5072 20.7758 28.5267 20.9677 28.5583 21.1579L23.8716 23.5028C23.2013 22.8542 22.3548 22.4173 21.4377 22.2467C20.5207 22.076 19.5737 22.1791 18.7149 22.5432C17.856 22.9073 17.1234 23.5161 16.6084 24.2938C16.0934 25.0716 15.8187 25.9837 15.8187 26.9165C15.8187 27.8493 16.0934 28.7614 16.6084 29.5392C17.1234 30.3169 17.856 30.9257 18.7149 31.2898C19.5737 31.6538 20.5207 31.757 21.4377 31.5863C22.3548 31.4157 23.2013 30.9788 23.8716 30.3302L28.5583 32.6751C28.5267 32.8652 28.5072 33.0572 28.4997 33.2498C28.4942 34.3515 28.8698 35.4211 29.563 36.2774C30.2561 37.1337 31.2241 37.7238 32.3027 37.9478C33.3814 38.1719 34.5043 38.0159 35.4811 37.5064C36.4579 36.997 37.2284 36.1653 37.6619 35.1526C38.0955 34.1398 38.1654 33.0083 37.8599 31.9499C37.5544 30.8914 36.8921 29.9712 35.9855 29.3453C35.0789 28.7194 33.9838 28.4264 32.8858 28.5158C31.7877 28.6053 30.7545 29.0718 29.9611 29.8362L25.2745 27.4912C25.306 27.3011 25.3256 27.1091 25.3331 26.9165C25.3256 26.7239 25.306 26.5319 25.2745 26.3417L29.9611 23.9968C30.8422 24.8525 32.0216 25.3318 33.2497 25.3332Z" fill="#374957"/>
</g>
<defs>
<clipPath id="clip0_700_4015">
<rect width="38" height="38" fill="white"/>
</clipPath>
</defs>
</svg>
