<svg width="38" height="38" viewBox="0 0 38 38" fill="none" xmlns="http://www.w3.org/2000/svg">
<g id="fi-sr-cloud-share" clip-path="url(#clip0_700_4136)">
<path id="Vector" d="M20.5831 34.8332H8.99781C6.8868 34.7952 4.85227 34.0365 3.23194 32.6828C1.61161 31.3292 0.502945 29.4621 0.089977 27.3916C-0.178921 25.6099 0.117069 23.7887 0.93637 22.1839C1.75567 20.5791 3.05712 19.2713 4.65789 18.4441C3.28332 15.9446 2.83477 13.0402 3.39123 10.2425C3.9325 7.47532 5.38156 4.96788 7.50888 3.11731C9.63621 1.26675 12.3202 0.17888 15.1356 0.0260212C17.9511 -0.126838 20.737 0.664055 23.0522 2.27342C25.3674 3.88278 27.0794 6.21861 27.9171 8.91089C27.9968 9.18336 28.1427 9.43183 28.342 9.63408C28.5412 9.83634 28.7874 9.98607 29.0586 10.0699C30.8035 10.6043 32.4128 11.5083 33.777 12.7204C33.6028 12.7077 33.4318 12.6666 33.2497 12.6666C31.3964 12.6691 29.6025 13.3205 28.1795 14.5078C26.7565 15.6951 25.7942 17.3433 25.4597 19.1661L24.1186 19.8375C23.0219 19.2853 21.8109 18.9985 20.5831 18.9999C18.4834 18.9999 16.4698 19.834 14.9851 21.3186C13.5005 22.8033 12.6664 24.8169 12.6664 26.9166C12.6664 29.0162 13.5005 31.0298 14.9851 32.5145C16.4698 33.9991 18.4834 34.8332 20.5831 34.8332ZM33.2497 25.3332C34.1892 25.3332 35.1075 25.0546 35.8887 24.5327C36.6698 24.0108 37.2786 23.2689 37.6382 22.401C37.9977 21.533 38.0917 20.578 37.9085 19.6565C37.7252 18.7351 37.2728 17.8888 36.6085 17.2245C35.9442 16.5602 35.0978 16.1078 34.1764 15.9245C33.255 15.7412 32.2999 15.8353 31.432 16.1948C30.564 16.5543 29.8222 17.1631 29.3002 17.9443C28.7783 18.7254 28.4997 19.6438 28.4997 20.5832C28.5072 20.7758 28.5267 20.9678 28.5583 21.158L23.8716 23.5029C23.2013 22.8543 22.3548 22.4174 21.4377 22.2467C20.5207 22.0761 19.5737 22.1792 18.7149 22.5433C17.856 22.9073 17.1234 23.5162 16.6084 24.2939C16.0934 25.0716 15.8187 25.9838 15.8187 26.9166C15.8187 27.8493 16.0934 28.7615 16.6084 29.5392C17.1234 30.3169 17.856 30.9258 18.7149 31.2899C19.5737 31.6539 20.5207 31.757 21.4377 31.5864C22.3548 31.4157 23.2013 30.9788 23.8716 30.3302L28.5583 32.6751C28.5267 32.8653 28.5072 33.0573 28.4997 33.2499C28.4942 34.3515 28.8698 35.4212 29.563 36.2775C30.2561 37.1337 31.2241 37.7239 32.3027 37.9479C33.3814 38.1719 34.5043 38.016 35.4811 37.5065C36.4579 36.997 37.2284 36.1654 37.6619 35.1526C38.0955 34.1399 38.1654 33.0084 37.8599 31.9499C37.5544 30.8915 36.8921 29.9713 35.9855 29.3454C35.0789 28.7195 33.9838 28.4264 32.8858 28.5159C31.7877 28.6054 30.7545 29.0718 29.9611 29.8362L25.2745 27.4913C25.306 27.3011 25.3256 27.1092 25.3331 26.9166C25.3256 26.7239 25.306 26.532 25.2745 26.3418L29.9611 23.9969C30.8422 24.8526 32.0216 25.3318 33.2497 25.3332Z" fill="white"/>
</g>
<defs>
<clipPath id="clip0_700_4136">
<rect width="38" height="38" fill="white"/>
</clipPath>
</defs>
</svg>
