<svg width="19" height="18" viewBox="0 0 19 18" fill="none" xmlns="http://www.w3.org/2000/svg">
<g id="Icons/fi:share-2/Black">
<path id="Vector" d="M14 16.5C15.2426 16.5 16.25 15.4926 16.25 14.25C16.25 13.0074 15.2426 12 14 12C12.7574 12 11.75 13.0074 11.75 14.25C11.75 15.4926 12.7574 16.5 14 16.5Z" stroke="white" stroke-width="2" stroke-linecap="round" stroke-linejoin="round"/>
<path id="Vector_2" d="M5 11.25C6.24264 11.25 7.25 10.2426 7.25 9C7.25 7.75736 6.24264 6.75 5 6.75C3.75736 6.75 2.75 7.75736 2.75 9C2.75 10.2426 3.75736 11.25 5 11.25Z" stroke="white" stroke-width="2" stroke-linecap="round" stroke-linejoin="round"/>
<path id="Vector_3" d="M6.94238 10.1325L12.0649 13.1175" stroke="white" stroke-width="2" stroke-linecap="round" stroke-linejoin="round"/>
<path id="Vector_4" d="M14 6C15.2426 6 16.25 4.99264 16.25 3.75C16.25 2.50736 15.2426 1.5 14 1.5C12.7574 1.5 11.75 2.50736 11.75 3.75C11.75 4.99264 12.7574 6 14 6Z" stroke="white" stroke-width="2" stroke-linecap="round" stroke-linejoin="round"/>
<path id="Vector_5" d="M12.0574 4.88251L6.94238 7.86751" stroke="white" stroke-width="2" stroke-linecap="round" stroke-linejoin="round"/>
</g>
</svg>
