<svg width="38" height="38" viewBox="0 0 38 38" fill="none" xmlns="http://www.w3.org/2000/svg">
<g id="fi-sr-flower-tulip" clip-path="url(#clip0_700_1537)">
<path id="Vector" d="M37.264 23.3142C36.9361 22.916 36.5154 22.6043 36.0389 22.4067C35.5624 22.209 35.0446 22.1314 34.5311 22.1805C31.5762 22.3536 28.7222 23.3184 26.2683 24.9736C23.8144 26.6289 21.8509 28.9137 20.5835 31.5887V22.0333C22.7959 21.6565 24.8039 20.5097 26.2526 18.7956C27.7012 17.0815 28.4973 14.9106 28.5002 12.6663C28.5002 8.24405 25.4238 4.50897 22.4139 1.43888C22.2398 1.26059 22.0512 1.09696 21.8502 0.949634C20.0319 4.57224 19.0576 8.55955 19.0002 12.6125C19.0073 12.8204 18.9733 13.0277 18.9003 13.2225C18.8273 13.4173 18.7166 13.5958 18.5745 13.7478C18.4325 13.8998 18.2619 14.0224 18.0725 14.1085C17.8831 14.1946 17.6786 14.2426 17.4707 14.2496C17.2628 14.2567 17.0555 14.2227 16.8607 14.1497C16.6659 14.0767 16.4874 13.966 16.3354 13.824C16.1833 13.6819 16.0608 13.5113 15.9747 13.3219C15.8886 13.1326 15.8406 12.9281 15.8335 12.7201C15.8503 8.3327 16.849 4.00466 18.7564 0.0534668C17.5645 0.100781 16.4341 0.594783 15.5897 1.4373C12.5766 4.50897 9.50022 8.24405 9.50022 12.6663C9.50309 14.9106 10.2992 17.0815 11.7479 18.7956C13.1965 20.5097 15.2045 21.6565 17.4169 22.0333V31.5903C16.1499 28.9149 14.1865 26.6297 11.7326 24.9741C9.27861 23.3185 6.42445 22.3536 3.4693 22.1805C2.95581 22.1316 2.43815 22.2094 1.96171 22.4071C1.48526 22.6047 1.06455 22.9162 0.736466 23.3142C0.410478 23.7013 0.183502 24.1618 0.0750999 24.6561C-0.0333021 25.1504 -0.0198777 25.6636 0.114216 26.1516C3.34263 37.7701 18.3526 37.9996 18.9907 37.9996H19.0097C19.643 37.9996 34.6594 37.7701 37.8878 26.1516C38.0211 25.6634 38.034 25.1502 37.9254 24.656C37.8167 24.1618 37.5897 23.7014 37.264 23.3142Z" fill="#374957"/>
</g>
<defs>
<clipPath id="clip0_700_1537">
<rect width="38" height="38" fill="white"/>
</clipPath>
</defs>
</svg>
