<svg width="36" height="36" viewBox="0 0 36 36" fill="none" xmlns="http://www.w3.org/2000/svg">
<path id="Star 1" d="M16.3238 1.52975C16.8996 -0.0262444 19.1004 -0.026243 19.6762 1.52976L23.3867 11.5574C23.5677 12.0466 23.9534 12.4323 24.4426 12.6133L34.4702 16.3238C36.0262 16.8996 36.0262 19.1004 34.4702 19.6762L24.4426 23.3867C23.9534 23.5677 23.5677 23.9534 23.3867 24.4426L19.6762 34.4702C19.1004 36.0262 16.8996 36.0262 16.3238 34.4702L12.6133 24.4426C12.4323 23.9534 12.0466 23.5677 11.5574 23.3867L1.52975 19.6762C-0.0262444 19.1004 -0.026243 16.8996 1.52976 16.3238L11.5574 12.6133C12.0466 12.4323 12.4323 12.0466 12.6133 11.5574L16.3238 1.52975Z" fill="#F9A63A"/>
</svg>
