<svg width="24" height="24" viewBox="0 0 24 24" fill="none" xmlns="http://www.w3.org/2000/svg">
<path id="Star 3" d="M10.8826 1.01983C11.2664 -0.0174996 12.7336 -0.0174955 13.1174 1.01984L15.5911 7.70491C15.7118 8.03104 15.969 8.28818 16.2951 8.40886L22.9802 10.8826C24.0175 11.2664 24.0175 12.7336 22.9802 13.1174L16.2951 15.5911C15.969 15.7118 15.7118 15.969 15.5911 16.2951L13.1174 22.9802C12.7336 24.0175 11.2664 24.0175 10.8826 22.9802L8.40886 16.2951C8.28818 15.969 8.03104 15.7118 7.70491 15.5911L1.01983 13.1174C-0.0174996 12.7336 -0.0174955 11.2664 1.01984 10.8826L7.70491 8.40886C8.03104 8.28818 8.28818 8.03104 8.40886 7.70491L10.8826 1.01983Z" fill="#D763B2"/>
</svg>
