<svg xmlns="http://www.w3.org/2000/svg" width="38" height="38" viewBox="0 0 38 38" fill="none">
  <g clip-path="url(#clip0_700_8022)">
    <path d="M11.0833 0H6.33333C2.83553 0 0 2.83553 0 6.33333V11.0833C0 14.5811 2.83553 17.4167 6.33333 17.4167H11.0833C14.5811 17.4167 17.4167 14.5811 17.4167 11.0833V6.33333C17.4167 2.83553 14.5811 0 11.0833 0Z" fill="white"/>
    <path d="M11.0833 20.5833H6.33333C2.83553 20.5833 0 23.4188 0 26.9167V31.6667C0 35.1645 2.83553 38 6.33333 38H11.0833C14.5811 38 17.4167 35.1645 17.4167 31.6667V26.9167C17.4167 23.4188 14.5811 20.5833 11.0833 20.5833Z" fill="#697586"/>
    <path d="M35.2972 30.2828L31.6666 33.9087V4.09135L35.2972 7.71718C35.4443 7.86419 35.6189 7.98078 35.8111 8.0603C36.0033 8.13981 36.2092 8.1807 36.4172 8.18063C36.6252 8.18056 36.8311 8.13952 37.0232 8.05987C37.2153 7.98021 37.3898 7.8635 37.5368 7.71639C37.6838 7.56928 37.8004 7.39466 37.88 7.2025C37.9595 7.01033 38.0004 6.80438 38.0003 6.59642C38.0002 6.38845 37.9592 6.18253 37.8795 5.99042C37.7999 5.79831 37.6832 5.62377 37.536 5.47677L33.44 1.38702C32.5493 0.497498 31.3421 -0.00213623 30.0833 -0.00213623C28.8246 -0.00213623 27.6173 0.497498 26.7266 1.38702L22.6306 5.47677C22.4835 5.62377 22.3667 5.79831 22.2871 5.99042C22.2074 6.18253 22.1664 6.38845 22.1663 6.59642C22.1663 6.80438 22.2071 7.01033 22.2867 7.2025C22.3662 7.39466 22.4828 7.56928 22.6298 7.71639C22.7768 7.8635 22.9513 7.98021 23.1434 8.05987C23.3355 8.13952 23.5415 8.18056 23.7494 8.18063C23.9574 8.1807 24.1633 8.13981 24.3555 8.0603C24.5477 7.98078 24.7223 7.86419 24.8694 7.71718L28.5 4.09135V33.9087L24.8694 30.2828C24.7222 30.1358 24.5475 30.0193 24.3552 29.9398C24.1629 29.8603 23.9569 29.8195 23.7489 29.8196C23.5408 29.8198 23.3348 29.8609 23.1427 29.9407C22.9505 30.0204 22.776 30.1372 22.629 30.2844C22.482 30.4316 22.3654 30.6064 22.2859 30.7986C22.2065 30.9909 22.1656 31.1969 22.1658 31.405C22.1659 31.613 22.207 31.819 22.2868 32.0111C22.3665 32.2033 22.4834 32.3778 22.6306 32.5248L26.7266 36.6146C27.6185 37.5018 28.8253 37.9998 30.0833 37.9998C31.3413 37.9998 32.5481 37.5018 33.44 36.6146L37.536 32.5248C37.8334 32.228 38.0005 31.8251 38.0008 31.405C38.0011 30.9848 37.8345 30.5817 37.5376 30.2844C37.2407 29.9871 36.8379 29.8199 36.4178 29.8196C35.9976 29.8193 35.5945 29.986 35.2972 30.2828Z" fill="white"/>
  </g>
  <defs>
    <clipPath id="clip0_700_8022">
      <rect width="38" height="38" fill="white"/>
    </clipPath>
  </defs>
</svg>