<svg width="21" height="20" viewBox="0 0 21 20" fill="none" xmlns="http://www.w3.org/2000/svg">
<g id="Telegram - Original" clip-path="url(#clip0_301_7891)">
<path id="Vector" d="M10.5 20C16.0228 20 20.5 15.5228 20.5 10C20.5 4.47715 16.0228 0 10.5 0C4.97715 0 0.5 4.47715 0.5 10C0.5 15.5228 4.97715 20 10.5 20Z" fill="url(#paint0_linear_301_7891)"/>
<path id="Vector_2" fill-rule="evenodd" clip-rule="evenodd" d="M5.02657 9.89446C7.94177 8.62435 9.8857 7.78702 10.8583 7.38246C13.6354 6.22737 14.2125 6.02672 14.5886 6.02009C14.6714 6.01863 14.8563 6.03913 14.9761 6.13635C15.0773 6.21844 15.1051 6.32934 15.1184 6.40717C15.1318 6.485 15.1484 6.6623 15.1352 6.80083C14.9847 8.38207 14.3335 12.2193 14.0022 13.9903C13.862 14.7397 13.586 14.991 13.3188 15.0155C12.7381 15.069 12.2971 14.6318 11.7347 14.2631C10.8545 13.6861 10.3573 13.327 9.503 12.764C8.51569 12.1134 9.15572 11.7558 9.71839 11.1714C9.86564 11.0184 12.4243 8.69115 12.4738 8.48002C12.48 8.45362 12.4858 8.3552 12.4273 8.30322C12.3688 8.25125 12.2825 8.26903 12.2202 8.28316C12.132 8.30319 10.726 9.23252 8.00219 11.0711C7.6031 11.3452 7.24161 11.4787 6.91773 11.4717C6.56068 11.464 5.87385 11.2698 5.36327 11.1039C4.73702 10.9003 4.23929 10.7927 4.28263 10.4469C4.3052 10.2669 4.55318 10.0827 5.02657 9.89446Z" fill="white"/>
</g>
<defs>
<linearGradient id="paint0_linear_301_7891" x1="10.5" y1="0" x2="10.5" y2="19.8517" gradientUnits="userSpaceOnUse">
<stop stop-color="#2AABEE"/>
<stop offset="1" stop-color="#229ED9"/>
</linearGradient>
<clipPath id="clip0_301_7891">
<rect width="20" height="20" fill="white" transform="translate(0.5)"/>
</clipPath>
</defs>
</svg>
