<svg width="19" height="18" viewBox="0 0 19 18" fill="none" xmlns="http://www.w3.org/2000/svg">
<g clip-path="url(#clip0_641_8532)">
<path fill-rule="evenodd" clip-rule="evenodd" d="M8.75 1.5C7.75544 1.5 6.80161 1.89509 6.09835 2.59835C5.39509 3.30161 5 4.25544 5 5.25C5 6.24456 5.39509 7.19839 6.09835 7.90165C6.80161 8.60491 7.75544 9 8.75 9C9.74456 9 10.6984 8.60491 11.4017 7.90165C12.1049 7.19839 12.5 6.24456 12.5 5.25C12.5 4.25544 12.1049 3.30161 11.4017 2.59835C10.6984 1.89509 9.74456 1.5 8.75 1.5ZM8.75 9.75C6.95375 9.75 5.31875 10.2705 4.1165 11.0033C3.5165 11.3707 3.0035 11.802 2.633 12.2708C2.2685 12.7327 2 13.2847 2 13.875C2 14.5087 2.30825 15.0083 2.75225 15.3645C3.17225 15.702 3.7265 15.9255 4.31525 16.0815C5.49875 16.3942 7.07825 16.5 8.75 16.5C8.9225 16.5 9.095 16.4985 9.26375 16.4963C9.38936 16.4945 9.51252 16.4613 9.62193 16.3996C9.73135 16.3378 9.82351 16.2496 9.88995 16.143C9.95639 16.0364 9.995 15.9148 10.0022 15.7894C10.0094 15.664 9.98503 15.5388 9.93125 15.4252C9.64621 14.8235 9.49889 14.1658 9.5 13.5C9.5 12.561 9.78725 11.691 10.2778 10.9703C10.3507 10.8631 10.3946 10.739 10.4052 10.6098C10.4159 10.4807 10.3929 10.351 10.3385 10.2334C10.2841 10.1158 10.2002 10.0143 10.0949 9.9388C9.98963 9.86328 9.86658 9.81632 9.73775 9.8025C9.41525 9.768 9.08525 9.75 8.75 9.75ZM16.781 12.051C16.9176 11.9095 16.9932 11.7201 16.9915 11.5234C16.9898 11.3268 16.9109 11.1387 16.7719 10.9996C16.6328 10.8606 16.4447 10.7817 16.2481 10.78C16.0514 10.7783 15.862 10.8539 15.7205 10.9905L13.334 13.377L12.2735 12.3165C12.132 12.1799 11.9426 12.1043 11.7459 12.106C11.5493 12.1077 11.3612 12.1866 11.2221 12.3256C11.0831 12.4647 11.0042 12.6528 11.0025 12.8494C11.0008 13.0461 11.0764 13.2355 11.213 13.377L12.7505 14.9145C12.8271 14.9911 12.9181 15.052 13.0182 15.0934C13.1183 15.1349 13.2256 15.1563 13.334 15.1563C13.4424 15.1563 13.5497 15.1349 13.6498 15.0934C13.7499 15.052 13.8409 14.9911 13.9175 14.9145L16.781 12.051Z" fill="white"/>
</g>
<defs>
<clipPath id="clip0_641_8532">
<rect width="18" height="18" fill="white" transform="translate(0.5)"/>
</clipPath>
</defs>
</svg>
