<svg width="39" height="30" viewBox="0 0 39 30" fill="none" xmlns="http://www.w3.org/2000/svg">
<g id="Logo 2">
<path id="Subtract" fill-rule="evenodd" clip-rule="evenodd" d="M9.20852 19.5225C10.2948 21.404 13.0105 21.404 14.0968 19.5225L20.7038 8.07886H9.00408C7.90707 8.07886 7.01778 7.18956 7.01778 6.09256C7.01778 4.99555 7.90707 4.10625 9.00408 4.10625H22.9932C23.947 2.24804 22.6019 0.0018633 20.4787 0.00186312L2.82659 0.00186157C0.654013 0.00186138 -0.703843 2.35374 0.382443 4.23525L9.20852 19.5225Z" fill="#424242"/>
<path id="Subtract_2" fill-rule="evenodd" clip-rule="evenodd" d="M29.2875 9.48986C28.2012 7.60836 25.4855 7.60836 24.3992 9.48986L17.7966 20.9259H29.661C30.758 20.9259 31.6473 21.8152 31.6473 22.9122C31.6473 24.0092 30.758 24.8985 29.661 24.8985H15.5067C14.5453 26.7582 15.8912 29.0105 18.0173 29.0105H35.6694C37.842 29.0105 39.1998 26.6586 38.1136 24.7771L29.2875 9.48986Z" fill="#5BC0BE"/>
</g>
</svg>
